<svg xmlns="http://www.w3.org/2000/svg" width="600" height="450" viewBox="0 0 600 450">
  <defs>
    <linearGradient id="sky2" x1="0%" y1="0%" x2="0%" y2="100%">
      <stop offset="0%" stop-color="#0E1A2A"/>
      <stop offset="50%" stop-color="#1B2838"/>
      <stop offset="100%" stop-color="#2A3A4E"/>
    </linearGradient>
  </defs>
  <rect width="600" height="450" fill="url(#sky2)"/>
  <circle cx="480" cy="80" r="30" fill="#E8E4D8" opacity="0.15"/>
  <circle cx="480" cy="80" r="18" fill="#E8E4D8" opacity="0.25"/>
  <g fill="#0A1018">
    <rect x="0" y="250" width="60" height="200"/>
    <rect x="55" y="220" width="50" height="230"/>
    <rect x="100" y="280" width="70" height="170"/>
    <rect x="165" y="200" width="55" height="250"/>
    <rect x="215" y="260" width="60" height="190"/>
    <rect x="270" y="180" width="65" height="270"/>
    <rect x="330" y="240" width="50" height="210"/>
    <rect x="375" y="210" width="70" height="240"/>
    <rect x="440" y="260" width="55" height="190"/>
    <rect x="490" y="190" width="60" height="260"/>
    <rect x="545" y="250" width="55" height="200"/>
  </g>
  <g fill="#FFD580" opacity="0.45">
    <rect x="10" y="270" width="4" height="6"/>
    <rect x="20" y="290" width="4" height="6"/>
    <rect x="30" y="310" width="4" height="6"/>
    <rect x="65" y="240" width="4" height="6"/>
    <rect x="75" y="270" width="4" height="6"/>
    <rect x="85" y="300" width="4" height="6"/>
    <rect x="110" y="300" width="4" height="6"/>
    <rect x="125" y="330" width="4" height="6"/>
    <rect x="145" y="310" width="4" height="6"/>
    <rect x="175" y="220" width="4" height="6"/>
    <rect x="185" y="250" width="4" height="6"/>
    <rect x="195" y="290" width="4" height="6"/>
    <rect x="205" y="330" width="4" height="6"/>
    <rect x="225" y="280" width="4" height="6"/>
    <rect x="240" y="310" width="4" height="6"/>
    <rect x="255" y="340" width="4" height="6"/>
    <rect x="280" y="200" width="4" height="6"/>
    <rect x="290" y="230" width="4" height="6"/>
    <rect x="300" y="270" width="4" height="6"/>
    <rect x="310" y="300" width="4" height="6"/>
    <rect x="320" y="340" width="4" height="6"/>
    <rect x="340" y="260" width="4" height="6"/>
    <rect x="355" y="290" width="4" height="6"/>
    <rect x="385" y="230" width="4" height="6"/>
    <rect x="395" y="260" width="4" height="6"/>
    <rect x="410" y="300" width="4" height="6"/>
    <rect x="425" y="330" width="4" height="6"/>
    <rect x="450" y="280" width="4" height="6"/>
    <rect x="465" y="310" width="4" height="6"/>
    <rect x="500" y="210" width="4" height="6"/>
    <rect x="510" y="240" width="4" height="6"/>
    <rect x="520" y="280" width="4" height="6"/>
    <rect x="530" y="320" width="4" height="6"/>
    <rect x="555" y="270" width="4" height="6"/>
    <rect x="570" y="300" width="4" height="6"/>
    <rect x="585" y="340" width="4" height="6"/>
  </g>
</svg>
