<svg xmlns="http://www.w3.org/2000/svg" width="600" height="450" viewBox="0 0 600 450">
  <defs>
    <linearGradient id="night" x1="0%" y1="0%" x2="0%" y2="100%">
      <stop offset="0%" stop-color="#161728"/>
      <stop offset="60%" stop-color="#1F2040"/>
      <stop offset="100%" stop-color="#2A2B4A"/>
    </linearGradient>
  </defs>
  <rect width="600" height="450" fill="url(#night)"/>
  <g fill="none" stroke-linecap="round">
    <g stroke="#9B8AFF" stroke-width="1.5" opacity="0.75">
      <line x1="150" y1="120" x2="150" y2="70"/>
      <line x1="150" y1="120" x2="110" y2="90"/>
      <line x1="150" y1="120" x2="190" y2="90"/>
      <line x1="150" y1="120" x2="115" y2="150"/>
      <line x1="150" y1="120" x2="185" y2="150"/>
      <line x1="150" y1="120" x2="105" y2="120"/>
      <line x1="150" y1="120" x2="195" y2="120"/>
    </g>
    <g stroke="#7B9EFF" stroke-width="1.5" opacity="0.7">
      <line x1="430" y1="160" x2="430" y2="110"/>
      <line x1="430" y1="160" x2="390" y2="130"/>
      <line x1="430" y1="160" x2="470" y2="130"/>
      <line x1="430" y1="160" x2="395" y2="190"/>
      <line x1="430" y1="160" x2="465" y2="190"/>
      <line x1="430" y1="160" x2="385" y2="160"/>
      <line x1="430" y1="160" x2="475" y2="160"/>
    </g>
    <g stroke="#C77DFF" stroke-width="1.5" opacity="0.65">
      <line x1="300" y1="90" x2="300" y2="50"/>
      <line x1="300" y1="90" x2="270" y2="65"/>
      <line x1="300" y1="90" x2="330" y2="65"/>
      <line x1="300" y1="90" x2="270" y2="115"/>
      <line x1="300" y1="90" x2="330" y2="115"/>
    </g>
  </g>
  <circle cx="150" cy="120" r="3" fill="#9B8AFF"/>
  <circle cx="430" cy="160" r="3" fill="#7B9EFF"/>
  <circle cx="300" cy="90" r="2.5" fill="#C77DFF"/>
  <g fill="#FFD580" opacity="0.5">
    <circle cx="80" cy="200" r="1"/>
    <circle cx="200" cy="180" r="1"/>
    <circle cx="350" cy="220" r="1"/>
    <circle cx="500" cy="100" r="1"/>
    <circle cx="550" cy="200" r="1"/>
    <circle cx="50" cy="280" r="0.8"/>
    <circle cx="250" cy="250" r="0.8"/>
  </g>
  <path d="M0 380 Q150 360 300 375 Q450 390 600 370 L600 450 L0 450 Z" fill="#0D0E1A" opacity="0.8"/>
</svg>
