<svg xmlns="http://www.w3.org/2000/svg" width="600" height="450" viewBox="0 0 600 450">
  <defs>
    <linearGradient id="glass" x1="0%" y1="0%" x2="100%" y2="100%">
      <stop offset="0%" stop-color="#3A4248"/>
      <stop offset="50%" stop-color="#5A6570"/>
      <stop offset="100%" stop-color="#7A8590"/>
    </linearGradient>
  </defs>
  <rect width="600" height="450" fill="url(#glass)"/>
  <g stroke="#FFFFFF" stroke-opacity="0.12" stroke-width="1.5" stroke-linecap="round">
    <line x1="80" y1="0" x2="60" y2="120"/>
    <line x1="120" y1="60" x2="100" y2="180"/>
    <line x1="180" y1="20" x2="160" y2="140"/>
    <line x1="240" y1="80" x2="220" y2="200"/>
    <line x1="300" y1="0" x2="280" y2="100"/>
    <line x1="360" y1="40" x2="340" y2="160"/>
    <line x1="420" y1="10" x2="400" y2="130"/>
    <line x1="480" y1="70" x2="460" y2="190"/>
    <line x1="540" y1="30" x2="520" y2="150"/>
    <line x1="60" y1="200" x2="40" y2="320"/>
    <line x1="150" y1="240" x2="130" y2="360"/>
    <line x1="220" y1="220" x2="200" y2="340"/>
    <line x1="290" y1="260" x2="270" y2="380"/>
    <line x1="370" y1="200" x2="350" y2="320"/>
    <line x1="450" y1="250" x2="430" y2="370"/>
    <line x1="520" y1="210" x2="500" y2="330"/>
  </g>
  <ellipse cx="300" cy="440" rx="250" ry="30" fill="#2A3035" opacity="0.4"/>
</svg>
